<?xml version="1.0" standalone="no"?>
<!DOCTYPE svg PUBLIC "-//W3C//DTD SVG 20010904//EN"
 "http://www.w3.org/TR/2001/REC-SVG-20010904/DTD/svg10.dtd">
<svg version="1.0" xmlns="http://www.w3.org/2000/svg"
 width="500.000000pt" height="500.000000pt" viewBox="0 0 500.000000 500.000000"
 preserveAspectRatio="xMidYMid meet">
<metadata>
Created by potrace 1.14, written by Peter Selinger 2001-2017
</metadata>
<g transform="translate(0.000000,500.000000) scale(0.100000,-0.100000)"
fill="#000000" stroke="none">
<path d="M1456 3084 c-147 -416 -265 -758 -262 -761 13 -13 29 22 96 212 l73
205 325 -2 324 -3 49 -135 c27 -74 60 -168 75 -207 l26 -73 144 0 c79 0 144 1
144 3 0 1 -128 342 -284 757 l-284 755 -79 3 -79 3 -268 -757z m274 444 c32
-101 219 -629 266 -752 6 -14 -26 -16 -304 -16 -171 0 -313 3 -315 8 -3 5 304
892 309 892 1 0 21 -60 44 -132z"/>
<path d="M2833 3091 c-184 -50 -292 -154 -329 -318 -32 -144 -6 -288 71 -392
l45 -61 267 0 268 0 -130 65 c-207 102 -270 162 -301 285 -32 127 1 277 74
342 78 68 194 93 295 64 121 -35 174 -126 192 -329 l8 -79 46 7 c57 8 118 41
145 78 34 46 29 134 -10 189 -39 56 -122 113 -204 140 -96 31 -335 36 -437 9z"/>
<path d="M1307 2211 c-4 -17 -3 -21 5 -13 5 5 8 16 6 23 -3 8 -7 3 -11 -10z"/>
<path d="M2551 2134 c0 -11 3 -14 6 -6 3 7 2 16 -1 19 -3 4 -6 -2 -5 -13z"/>
<path d="M2420 2105 c19 -19 36 -35 39 -35 3 0 -10 16 -29 35 -19 19 -36 35
-39 35 -3 0 10 -16 29 -35z"/>
<path d="M985 2109 c-4 -6 -5 -12 -2 -15 2 -3 7 2 10 11 7 17 1 20 -8 4z"/>
<path d="M1058 2113 c7 -3 16 -2 19 1 4 3 -2 6 -13 5 -11 0 -14 -3 -6 -6z"/>
<path d="M1321 2073 c0 -18 -6 -33 -13 -33 -6 0 -3 -6 8 -14 10 -8 20 -14 20
-13 1 1 -2 22 -6 47 -6 39 -8 40 -9 13z"/>
<path d="M2120 2059 c0 -19 -6 -41 -12 -48 -11 -11 -10 -12 0 -6 9 4 19 -1 28
-14 9 -12 25 -20 37 -20 l22 2 -23 4 c-26 5 -38 26 -41 72 -2 46 -11 53 -11
10z"/>
<path d="M990 2077 c0 -2 15 -16 33 -33 l32 -29 -29 33 c-28 30 -36 37 -36 29z"/>
<path d="M1246 2072 c-4 -7 -13 -9 -19 -5 -9 5 -9 3 0 -8 7 -9 9 -20 5 -25 -4
-5 1 -2 12 7 10 9 16 23 14 30 -3 10 -6 10 -12 1z"/>
<path d="M3503 2043 c-3 -10 -13 -27 -22 -37 -16 -19 -16 -19 11 0 23 16 39
54 23 54 -3 0 -8 -8 -12 -17z"/>
<path d="M2364 2028 l-19 -23 23 19 c21 18 27 26 19 26 -2 0 -12 -10 -23 -22z"/>
<path d="M2685 2030 c2 -27 10 -33 12 -10 1 11 -2 22 -6 24 -4 3 -7 -4 -6 -14z"/>
<path d="M1407 2033 c-11 -10 -8 -51 4 -59 6 -3 16 -1 22 5 9 9 8 11 -5 6 -14
-5 -18 -2 -18 13 0 28 16 36 29 15 6 -10 11 -13 11 -7 0 11 -20 34 -30 34 -4
0 -10 -3 -13 -7z"/>
<path d="M1675 2014 c-18 -16 -22 -22 -9 -15 18 9 53 42 43 41 -2 -1 -17 -12
-34 -26z"/>
<path d="M3688 2026 c-18 -14 -24 -41 -10 -49 9 -7 53 29 45 36 -3 4 -14 -4
-24 -16 -12 -15 -18 -17 -19 -8 0 8 7 23 17 33 19 21 15 23 -9 4z"/>
<path d="M1546 2014 c-11 -8 -16 -14 -10 -14 13 0 39 18 34 24 -3 2 -14 -2
-24 -10z"/>
<path d="M1703 2004 c-22 -24 -17 -34 5 -12 7 7 12 8 12 2 0 -5 -4 -14 -10
-20 -5 -5 -6 -14 -2 -21 5 -7 12 1 18 22 14 46 4 59 -23 29z"/>
<path d="M1821 2021 c-8 -5 -9 -11 -3 -15 5 -3 12 1 16 9 6 17 6 18 -13 6z"/>
<path d="M2515 2019 c-4 -6 -5 -12 -2 -15 2 -3 7 2 10 11 7 17 1 20 -8 4z"/>
<path d="M2804 2008 c-10 -13 -12 -18 -5 -11 11 10 17 9 27 -5 10 -14 11 -13
7 11 -3 15 -6 27 -8 27 -1 0 -10 -10 -21 -22z"/>
<path d="M3164 2016 c-3 -8 -4 -23 -2 -32 2 -14 6 -12 15 9 8 16 9 29 3 32 -6
4 -13 -1 -16 -9z"/>
<path d="M3357 2005 c-15 -14 -24 -25 -20 -25 5 0 15 6 21 12 10 10 15 10 21
-1 6 -9 9 -5 9 13 0 14 -1 26 -2 26 0 0 -14 -12 -29 -25z"/>
<path d="M3545 2020 c3 -5 8 -10 11 -10 2 0 4 5 4 10 0 6 -5 10 -11 10 -5 0
-7 -4 -4 -10z"/>
<path d="M1358 2013 c7 -3 16 -2 19 1 4 3 -2 6 -13 5 -11 0 -14 -3 -6 -6z"/>
<path d="M1842 1995 c-12 -14 -18 -25 -12 -25 5 0 13 8 19 17 8 15 11 15 28 3
17 -14 17 -14 3 5 -8 11 -15 21 -15 22 -1 2 -11 -8 -23 -22z"/>
<path d="M1990 2006 c0 -8 4 -17 9 -20 5 -4 7 3 4 14 -6 23 -13 26 -13 6z"/>
<path d="M2532 1995 c-12 -14 -18 -25 -12 -25 5 0 13 8 19 17 8 15 11 15 28 3
17 -14 17 -14 3 5 -8 11 -15 21 -15 22 -1 2 -11 -8 -23 -22z"/>
<path d="M2937 2014 c-3 -5 -2 -16 2 -22 6 -10 11 -9 21 3 17 20 37 19 49 -2
6 -10 11 -13 11 -7 0 6 -7 17 -16 25 -12 10 -20 10 -34 1 -14 -8 -20 -8 -22 0
-3 8 -7 8 -11 2z"/>
<path d="M3315 2010 c-3 -6 1 -7 9 -4 18 7 21 14 7 14 -6 0 -13 -4 -16 -10z"/>
<path d="M3836 2012 c-2 -4 -1 -14 3 -21 6 -9 11 -10 15 -2 4 6 2 11 -4 11 -6
0 -8 5 -5 10 3 6 4 10 1 10 -3 0 -7 -4 -10 -8z"/>
<path d="M3875 2010 c-3 -6 1 -7 9 -4 18 7 21 14 7 14 -6 0 -13 -4 -16 -10z"/>
<path d="M3640 2000 c-9 -6 -10 -10 -3 -10 6 0 15 5 18 10 8 12 4 12 -15 0z"/>
<path d="M2210 1990 c-9 -6 -10 -10 -3 -10 6 0 15 5 18 10 8 12 4 12 -15 0z"/>
<path d="M3130 1990 c-9 -6 -10 -10 -3 -10 6 0 15 5 18 10 8 12 4 12 -15 0z"/>
<path d="M3199 1989 c-10 -6 -4 -9 19 -9 17 0 32 2 32 4 0 9 -39 13 -51 5z"/>
<path d="M3917 1989 c7 -7 15 -10 18 -7 3 3 -2 9 -12 12 -14 6 -15 5 -6 -5z"/>
<path d="M3598 1983 c7 -3 16 -2 19 1 4 3 -2 6 -13 5 -11 0 -14 -3 -6 -6z"/>
<path d="M1588 1973 c6 -2 18 -2 25 0 6 3 1 5 -13 5 -14 0 -19 -2 -12 -5z"/>
<path d="M2028 1973 c7 -3 16 -2 19 1 4 3 -2 6 -13 5 -11 0 -14 -3 -6 -6z"/>
<path d="M2398 1973 c12 -2 30 -2 40 0 9 3 -1 5 -23 4 -22 0 -30 -2 -17 -4z"/>
<path d="M2728 1973 c6 -2 18 -2 25 0 6 3 1 5 -13 5 -14 0 -19 -2 -12 -5z"/>
<path d="M2858 1973 c7 -3 16 -2 19 1 4 3 -2 6 -13 5 -11 0 -14 -3 -6 -6z"/>
<path d="M3408 1973 c7 -3 16 -2 19 1 4 3 -2 6 -13 5 -11 0 -14 -3 -6 -6z"/>
<path d="M3141 1927 c-7 -21 -10 -41 -7 -44 8 -8 28 47 23 66 -2 9 -9 -1 -16
-22z"/>
<path d="M1671 1894 c0 -11 3 -14 6 -6 3 7 2 16 -1 19 -3 4 -6 -2 -5 -13z"/>
<path d="M2501 1795 c-38 -44 -45 -70 -38 -151 11 -138 129 -247 314 -288 91
-20 303 -21 396 -1 229 48 377 203 401 418 l6 57 -125 0 -125 0 7 -27 c11 -42
7 -172 -6 -220 -40 -145 -188 -235 -362 -220 -184 15 -284 143 -305 390 l-7
77 -62 0 c-59 0 -65 -2 -94 -35z"/>
<path d="M1303 1754 c11 -4 16 -12 13 -20 -3 -8 -1 -14 5 -14 19 0 4 35 -16
37 -17 2 -17 1 -2 -3z"/>
<path d="M1427 1753 c-3 -5 8 -8 23 -8 15 0 26 3 23 8 -2 4 -13 7 -23 7 -10 0
-21 -3 -23 -7z"/>
<path d="M1577 1753 c-4 -3 -6 -20 -6 -37 1 -19 3 -24 6 -13 5 18 5 18 26 0
14 -12 17 -13 10 -2 -9 11 -9 19 -2 26 6 6 8 16 5 22 -8 12 -29 15 -39 4z m31
-14 c-2 -6 -8 -10 -13 -10 -5 0 -11 4 -13 10 -2 6 4 11 13 11 9 0 15 -5 13
-11z"/>
<path d="M1707 1752 c6 -4 13 -21 15 -37 3 -29 4 -29 9 8 4 32 2 37 -16 37
-12 0 -16 -3 -8 -8z"/>
<path d="M1831 1723 c1 -21 3 -30 6 -21 2 9 12 19 21 21 15 4 15 5 0 6 -10 0
-18 5 -18 10 0 5 8 12 18 14 13 4 11 5 -5 6 -20 1 -23 -4 -22 -36z"/>
<path d="M1967 1753 c-3 -5 8 -8 23 -8 15 0 26 3 23 8 -2 4 -13 7 -23 7 -10 0
-21 -3 -23 -7z"/>
<path d="M2233 1725 c0 -22 2 -30 4 -17 2 12 2 30 0 40 -3 9 -5 -1 -4 -23z"/>
<path d="M2340 1746 c-27 -33 18 -72 48 -42 13 13 14 20 6 34 -15 23 -38 26
-54 8z m48 -19 c4 -20 -25 -34 -40 -19 -15 15 -1 44 19 40 10 -2 19 -11 21
-21z"/>
<path d="M2111 1723 c-1 -25 3 -33 17 -33 11 0 13 3 6 8 -7 4 -14 18 -17 32
-4 21 -4 20 -6 -7z"/>
<path d="M1427 1698 c2 -5 13 -8 23 -8 10 0 21 3 23 8 3 4 -8 7 -23 7 -15 0
-26 -3 -23 -7z"/>
<path d="M1967 1698 c2 -5 13 -8 23 -8 10 0 21 3 23 8 3 4 -8 7 -23 7 -15 0
-26 -3 -23 -7z"/>
</g>
</svg>
